<svg width="45" height="45" viewBox="0 0 45 45" fill="none" xmlns="http://www.w3.org/2000/svg">
<path d="M23.5867 25.7535C23.6711 26.1191 23.7086 26.4941 23.7086 26.8785C23.7086 29.9629 21.2055 32.4566 18.1211 32.4566C15.0367 32.4566 12.543 29.9629 12.543 26.8785C12.543 23.7848 15.0367 21.291 18.1211 21.291C18.5055 21.291 18.8805 21.3285 19.2461 21.4129" stroke="#C1C1C1" stroke-width="0.5" stroke-linecap="round" stroke-linejoin="round"/>
<path d="M31.0969 27.5908V28.1393C31.0969 28.9249 30.4566 29.5643 29.6719 29.5643H29.3044C27.5738 29.5643 26.7084 31.6568 27.9309 32.8793L28.1897 33.138C28.4562 33.4061 28.6059 33.7687 28.6059 34.1468C28.6059 34.5248 28.4562 34.8874 28.1897 35.1555L26.4028 36.9377C26.2706 37.0707 26.1135 37.1762 25.9403 37.2483C25.7672 37.3203 25.5816 37.3574 25.3941 37.3574C25.2066 37.3574 25.0209 37.3203 24.8478 37.2483C24.6747 37.1762 24.5175 37.0707 24.3853 36.9377L24.1266 36.6789C22.9041 35.4564 20.8116 36.3218 20.8116 38.0524V38.4189C20.8116 39.2046 20.1722 39.8439 19.3866 39.8439H16.8609C16.0753 39.8439 15.4359 39.2046 15.4359 38.4189V38.0524C15.4359 36.3218 13.3434 35.4555 12.1209 36.6789L11.8622 36.9377C11.73 37.0707 11.5728 37.1762 11.3997 37.2483C11.2266 37.3203 11.0409 37.3574 10.8534 37.3574C10.6659 37.3574 10.4803 37.3203 10.3072 37.2483C10.134 37.1762 9.97686 37.0707 9.84469 36.9377L8.0625 35.1555C7.9295 35.0233 7.82396 34.8662 7.75193 34.693C7.67991 34.5199 7.64283 34.3343 7.64283 34.1468C7.64283 33.9593 7.67991 33.7736 7.75193 33.6005C7.82396 33.4274 7.9295 33.2702 8.0625 33.138L8.32125 32.8793C9.54375 31.6568 8.67844 29.5643 6.94781 29.5643H6.58125C5.79094 29.5643 5.15625 28.9249 5.15625 28.1393V25.6127C5.15625 24.8271 5.79563 24.1877 6.58125 24.1877H6.9525C8.68313 24.1877 9.54937 22.0952 8.32594 20.8727L8.0625 20.6093C7.92942 20.4776 7.82377 20.3209 7.75167 20.1481C7.67956 19.9754 7.64244 19.79 7.64244 19.6029C7.64244 19.4157 7.67956 19.2303 7.75167 19.0576C7.82377 18.8848 7.92942 18.7281 8.0625 18.5964L9.84469 16.8096C10.1127 16.543 10.4754 16.3934 10.8534 16.3934C11.2315 16.3934 11.5941 16.543 11.8622 16.8096L12.1209 17.0683C13.3434 18.2908 15.4359 17.4255 15.4359 15.6949V15.3283C15.4359 14.5427 16.0753 13.9033 16.8609 13.9033H17.4234" stroke="#C1C1C1" stroke-width="0.5" stroke-linecap="round" stroke-linejoin="round"/>
<path d="M29.4145 20.0732C31.8936 20.0732 33.9033 18.0635 33.9033 15.5845C33.9033 13.1054 31.8936 11.0957 29.4145 11.0957C26.9355 11.0957 24.9258 13.1054 24.9258 15.5845C24.9258 18.0635 26.9355 20.0732 29.4145 20.0732Z" stroke="#C1C1C1" stroke-width="0.5" stroke-linecap="round" stroke-linejoin="round"/>
<path d="M39.842 14.5696V16.6003C39.842 17.2331 39.3292 17.7459 38.6964 17.7459H38.4002C37.0098 17.7459 36.3133 19.4268 37.2967 20.4103L37.5058 20.6184C37.952 21.0646 37.952 21.7903 37.5058 22.2403L36.0686 23.6737C35.9623 23.7806 35.8359 23.8654 35.6968 23.9232C35.5576 23.9811 35.4084 24.0109 35.2577 24.0109C35.1069 24.0109 34.9577 23.9811 34.8185 23.9232C34.6794 23.8654 34.553 23.7806 34.4467 23.6737L34.2386 23.4646C33.2542 22.4812 31.5742 23.1778 31.5742 24.5681V24.8643C31.5742 25.4971 31.0614 26.01 30.4286 26.01H28.398C28.2475 26.0102 28.0984 25.9807 27.9593 25.9233C27.8202 25.8658 27.6938 25.7814 27.5873 25.675C27.4809 25.5685 27.3965 25.4421 27.339 25.303C27.2816 25.1639 27.2521 25.0148 27.2523 24.8643V24.5681C27.2523 23.1778 25.5714 22.4812 24.588 23.4646L24.3798 23.6737C24.2736 23.7806 24.1472 23.8654 24.008 23.9232C23.8689 23.9811 23.7196 24.0109 23.5689 24.0109C23.4182 24.0109 23.269 23.9811 23.1298 23.9232C22.9906 23.8654 22.8643 23.7806 22.758 23.6737L21.3245 22.2403C21.2177 22.134 21.1329 22.0076 21.075 21.8685C21.0171 21.7293 20.9873 21.5801 20.9873 21.4293C20.9873 21.2786 21.0171 21.1294 21.075 20.9902C21.1329 20.851 21.2177 20.7247 21.3245 20.6184L21.5336 20.4103C22.517 19.4259 21.8205 17.7459 20.4302 17.7459H20.1339C19.9834 17.7461 19.8343 17.7167 19.6952 17.6592C19.5561 17.6017 19.4297 17.5173 19.3233 17.4109C19.2168 17.3045 19.1325 17.1781 19.075 17.039C19.0175 16.8999 18.988 16.7508 18.9883 16.6003V14.5687C18.9883 13.9359 19.5011 13.4231 20.1339 13.4231H20.4339C21.8242 13.4231 22.5208 11.7421 21.5373 10.7587L21.3245 10.5468C21.2177 10.4409 21.1328 10.3149 21.075 10.176C21.0171 10.0372 20.9873 9.88822 20.9873 9.73777C20.9873 9.58733 21.0171 9.43837 21.075 9.2995C21.1328 9.16064 21.2177 9.03461 21.3245 8.92871L22.758 7.49152C22.9735 7.2773 23.265 7.15705 23.5689 7.15705C23.8728 7.15705 24.1643 7.2773 24.3798 7.49152L24.588 7.70059C25.5723 8.68402 27.2523 7.98746 27.2523 6.59715V6.3009C27.2523 5.66809 27.7661 5.15527 28.398 5.15527H30.4286C31.0614 5.15527 31.5742 5.66809 31.5742 6.3009V6.59715C31.5742 7.98746 33.2552 8.68402 34.2386 7.70059L34.4467 7.49152C34.6622 7.2773 34.9538 7.15705 35.2577 7.15705C35.5615 7.15705 35.8531 7.2773 36.0686 7.49152L37.5058 8.92777C37.6122 9.03401 37.6967 9.16019 37.7543 9.2991C37.8119 9.43801 37.8416 9.58692 37.8416 9.7373C37.8416 9.88769 37.8119 10.0366 37.7543 10.1755C37.6967 10.3144 37.6122 10.4406 37.5058 10.5468L37.293 10.7587C36.3095 11.7431 37.0061 13.4231 38.3964 13.4231H38.6964C39.3283 13.4231 39.842 13.935 39.842 14.5696Z" stroke="#C1C1C1" stroke-width="0.5" stroke-linecap="round" stroke-linejoin="round"/>
</svg>
