<svg width="43" height="43" viewBox="0 0 43 43" fill="none" xmlns="http://www.w3.org/2000/svg">
<path d="M5.3737 14.3333H37.6237C38.0989 14.3333 38.5546 14.1446 38.8906 13.8086C39.2266 13.4726 39.4154 13.0168 39.4154 12.5417C39.4154 12.0665 39.2266 11.6108 38.8906 11.2748C38.5546 10.9388 38.0989 10.75 37.6237 10.75H5.3737C4.89852 10.75 4.4428 10.9388 4.1068 11.2748C3.7708 11.6108 3.58203 12.0665 3.58203 12.5417C3.58203 13.0168 3.7708 13.4726 4.1068 13.8086C4.4428 14.1446 4.89852 14.3333 5.3737 14.3333ZM37.6237 28.6667H5.3737C4.89852 28.6667 4.4428 28.8554 4.1068 29.1914C3.7708 29.5274 3.58203 29.9832 3.58203 30.4583C3.58203 30.9335 3.7708 31.3892 4.1068 31.7252C4.4428 32.0612 4.89852 32.25 5.3737 32.25H37.6237C38.0989 32.25 38.5546 32.0612 38.8906 31.7252C39.2266 31.3892 39.4154 30.9335 39.4154 30.4583C39.4154 29.9832 39.2266 29.5274 38.8906 29.1914C38.5546 28.8554 38.0989 28.6667 37.6237 28.6667ZM37.6237 19.7083H5.3737C4.89852 19.7083 4.4428 19.8971 4.1068 20.2331C3.7708 20.5691 3.58203 21.0248 3.58203 21.5C3.58203 21.9752 3.7708 22.4309 4.1068 22.7669C4.4428 23.1029 4.89852 23.2917 5.3737 23.2917H37.6237C38.0989 23.2917 38.5546 23.1029 38.8906 22.7669C39.2266 22.4309 39.4154 21.9752 39.4154 21.5C39.4154 21.0248 39.2266 20.5691 38.8906 20.2331C38.5546 19.8971 38.0989 19.7083 37.6237 19.7083Z" fill="#C1C1C1"/>
</svg>
