<svg width="45" height="45" viewBox="0 0 45 45" fill="none" xmlns="http://www.w3.org/2000/svg">
<path d="M28.125 1.40625C30.1318 1.40625 32.1387 1.51611 34.1455 1.73584C34.4971 1.77979 35.0024 1.8457 35.6616 1.93359C36.3208 2.02148 37.0605 2.15332 37.8809 2.3291C38.7012 2.50488 39.5215 2.70996 40.3418 2.94434C41.1621 3.17871 41.9312 3.46436 42.6489 3.80127C43.3667 4.13818 43.9307 4.51172 44.3408 4.92188C44.751 5.33203 44.9707 5.80078 45 6.32812V38.6719C45 39.1846 44.7803 39.646 44.3408 40.0562C43.9014 40.4663 43.3374 40.8398 42.6489 41.1768C41.9604 41.5137 41.1987 41.7993 40.3638 42.0337C39.5288 42.2681 38.7012 42.4731 37.8809 42.6489C37.0605 42.8247 36.3281 42.9639 35.6836 43.0664C35.0391 43.1689 34.5264 43.2349 34.1455 43.2642C32.1387 43.4839 30.1318 43.5938 28.125 43.5938C26.1035 43.5938 24.0967 43.4839 22.1045 43.2642C21.7529 43.2349 21.2476 43.1689 20.5884 43.0664C19.9292 42.9639 19.1895 42.832 18.3691 42.6709C17.5488 42.5098 16.7285 42.3047 15.9082 42.0557C15.0879 41.8066 14.3188 41.521 13.6011 41.1987C12.8833 40.8765 12.3193 40.5029 11.9092 40.0781C11.499 39.6533 11.2793 39.1846 11.25 38.6719V33.75H1.86768C1.35498 33.75 0.915527 33.5669 0.549316 33.2007C0.183105 32.8345 0 32.395 0 31.8823V13.1177C0 12.605 0.183105 12.1655 0.549316 11.7993C0.915527 11.4331 1.35498 11.25 1.86768 11.25H11.25V6.32812C11.25 5.81543 11.4697 5.354 11.9092 4.94385C12.3486 4.53369 12.9126 4.16016 13.6011 3.82324C14.2896 3.48633 15.0513 3.20068 15.8862 2.96631C16.7212 2.73193 17.5488 2.52686 18.3691 2.35107C19.1895 2.17529 19.9219 2.04346 20.5664 1.95557C21.2109 1.86768 21.7236 1.79443 22.1045 1.73584C24.0967 1.51611 26.1035 1.40625 28.125 1.40625ZM28.125 4.21875C27.1729 4.21875 26.1108 4.24805 24.939 4.30664C23.7671 4.36523 22.5806 4.48242 21.3794 4.6582C20.1782 4.83398 18.999 5.04639 17.8418 5.29541C16.6846 5.54443 15.6738 5.88867 14.8096 6.32812C15.7178 6.75293 16.7358 7.09717 17.8638 7.36084C18.9917 7.62451 20.1562 7.83691 21.3574 7.99805C22.5586 8.15918 23.7378 8.26904 24.895 8.32764C26.0522 8.38623 27.1289 8.42285 28.125 8.4375C29.1064 8.4375 30.1758 8.4082 31.333 8.34961C32.4902 8.29102 33.6694 8.18115 34.8706 8.02002C36.0718 7.85889 37.2363 7.64648 38.3643 7.38281C39.4922 7.11914 40.5176 6.76758 41.4404 6.32812C40.5615 5.91797 39.5508 5.58105 38.4082 5.31738C37.2656 5.05371 36.0938 4.83398 34.8926 4.6582C33.6914 4.48242 32.4976 4.37256 31.311 4.32861C30.1245 4.28467 29.0625 4.24805 28.125 4.21875ZM8.85498 26.521H13.623L14.7437 29.8828H18.501L13.1177 15.1172H9.44824L3.99902 29.8828H7.73438L8.85498 26.521ZM42.1875 38.2104V31.5527C41.2207 31.9775 40.144 32.3291 38.9575 32.6074C37.771 32.8857 36.5405 33.1055 35.2661 33.2666C33.9917 33.4277 32.7466 33.5522 31.5308 33.6401C30.3149 33.728 29.1797 33.7646 28.125 33.75C27.0557 33.75 25.9937 33.7207 24.939 33.6621C23.8843 33.6035 22.8223 33.5083 21.7529 33.3765C21.416 33.6255 21.0425 33.75 20.6323 33.75H14.0625V38.2104C14.4873 38.5474 15.0586 38.8477 15.7764 39.1113C16.4941 39.375 17.2852 39.6021 18.1494 39.7925C19.0137 39.9829 19.9292 40.1367 20.896 40.2539C21.8628 40.3711 22.7856 40.4736 23.6646 40.5615C24.5435 40.6494 25.3857 40.708 26.1914 40.7373C26.9971 40.7666 27.6416 40.7812 28.125 40.7812C28.6377 40.7812 29.2822 40.7666 30.0586 40.7373C30.835 40.708 31.6699 40.6567 32.5635 40.5835C33.457 40.5103 34.3872 40.4077 35.354 40.2759C36.3208 40.144 37.229 39.9829 38.0786 39.7925C38.9282 39.6021 39.7266 39.375 40.4736 39.1113C41.2207 38.8477 41.792 38.5474 42.1875 38.2104ZM42.1875 28.4106V20.3027C41.2207 20.7275 40.144 21.0791 38.9575 21.3574C37.771 21.6357 36.5405 21.8555 35.2661 22.0166C33.9917 22.1777 32.7466 22.3022 31.5308 22.3901C30.3149 22.478 29.1797 22.5146 28.125 22.5C27.1875 22.5 26.25 22.478 25.3125 22.4341C24.375 22.3901 23.4375 22.3169 22.5 22.2144V30.6519C23.4375 30.7544 24.375 30.8276 25.3125 30.8716C26.25 30.9155 27.1875 30.9375 28.125 30.9375C28.667 30.9375 29.3262 30.9229 30.1025 30.8936C30.8789 30.8643 31.7065 30.813 32.5854 30.7397C33.4644 30.6665 34.3799 30.564 35.332 30.4321C36.2842 30.3003 37.1851 30.1392 38.0347 29.9487C38.8843 29.7583 39.6753 29.5386 40.4077 29.2896C41.1401 29.0405 41.7334 28.7476 42.1875 28.4106ZM42.1875 17.1606V9.05273C41.2207 9.47754 40.144 9.8291 38.9575 10.1074C37.771 10.3857 36.5405 10.6055 35.2661 10.7666C33.9917 10.9277 32.7466 11.0522 31.5308 11.1401C30.3149 11.228 29.1797 11.2646 28.125 11.25C27.085 11.25 25.9497 11.2134 24.7192 11.1401C23.4888 11.0669 22.2437 10.9497 20.9839 10.7886C19.7241 10.6274 18.501 10.4004 17.3145 10.1074C16.1279 9.81445 15.0439 9.46289 14.0625 9.05273V11.25H20.6323C21.145 11.25 21.5845 11.4331 21.9507 11.7993C22.3169 12.1655 22.5 12.605 22.5 13.1177V19.4019C23.4375 19.5044 24.375 19.5776 25.3125 19.6216C26.25 19.6655 27.1875 19.6875 28.125 19.6875C28.667 19.6875 29.3262 19.6729 30.1025 19.6436C30.8789 19.6143 31.7065 19.563 32.5854 19.4897C33.4644 19.4165 34.3799 19.314 35.332 19.1821C36.2842 19.0503 37.1851 18.8892 38.0347 18.6987C38.8843 18.5083 39.6753 18.2886 40.4077 18.0396C41.1401 17.7905 41.7334 17.4976 42.1875 17.1606ZM9.71191 23.6646L11.228 19.0723L12.7002 23.6646H9.71191Z" fill="#C1C1C1"/>
</svg>
