<svg width="36" height="36" viewBox="0 0 36 36" fill="none" xmlns="http://www.w3.org/2000/svg">
<path d="M18 11.25C19.125 6.80907 23.374 4.54149 32.625 4.50001C32.7729 4.49945 32.9194 4.52817 33.0562 4.58451C33.1929 4.64085 33.3172 4.72369 33.4217 4.82827C33.5263 4.93285 33.6092 5.05709 33.6655 5.19383C33.7218 5.33057 33.7506 5.47711 33.75 5.62501V25.875C33.75 26.1734 33.6315 26.4595 33.4205 26.6705C33.2095 26.8815 32.9234 27 32.625 27C23.625 27 20.1481 28.8148 18 31.5M18 11.25C16.875 6.80907 12.626 4.54149 3.37501 4.50001C3.22711 4.49945 3.08057 4.52817 2.94383 4.58451C2.80709 4.64085 2.68285 4.72369 2.57827 4.82827C2.47369 4.93285 2.39085 5.05709 2.33451 5.19383C2.27817 5.33057 2.24945 5.47711 2.25001 5.62501V25.7393C2.25001 26.434 2.68032 27 3.37501 27C12.375 27 15.8646 28.8281 18 31.5M18 11.25V31.5" stroke="#8FD4FF" stroke-linecap="round" stroke-linejoin="round"/>
</svg>
