<svg width="36" height="36" viewBox="0 0 36 36" fill="none" xmlns="http://www.w3.org/2000/svg">
<path d="M6.75 32.25L12.75 26.25M15.75 26.25L21.75 32.25M14.25 26.25V33.75M25.5 15.375L25.689 15.261C28.863 13.356 30.45 12.405 31.725 12.864C33 13.3245 33 14.8485 33 17.8965V19.6035C33 22.6515 33 24.1755 31.725 24.636C30.45 25.0965 28.863 24.1425 25.689 22.239L25.5 22.125M3 17.8125C3 14.7195 3 13.1715 4.5375 12.2115C6.075 11.2515 8.55 11.25 13.5 11.25H15C19.95 11.25 22.425 11.25 23.9625 12.21C25.5 13.173 25.5 14.721 25.5 17.814V19.689C25.5 22.782 25.5 24.33 23.9625 25.29C22.425 26.25 19.95 26.25 15 26.25H13.5C8.55 26.25 6.075 26.25 4.5375 25.29C3 24.327 3 22.779 3 19.686V17.8125Z" stroke="#8FD4FF" stroke-width="1.5" stroke-linecap="round" stroke-linejoin="round"/>
<path d="M18.75 11.25C20.8211 11.25 22.5 9.57107 22.5 7.5C22.5 5.42893 20.8211 3.75 18.75 3.75C16.6789 3.75 15 5.42893 15 7.5C15 9.57107 16.6789 11.25 18.75 11.25Z" stroke="#8FD4FF" stroke-width="1.5" stroke-linecap="round" stroke-linejoin="round"/>
<path d="M10.5 11.25C12.9853 11.25 15 9.23528 15 6.75C15 4.26472 12.9853 2.25 10.5 2.25C8.01472 2.25 6 4.26472 6 6.75C6 9.23528 8.01472 11.25 10.5 11.25Z" stroke="#8FD4FF" stroke-width="1.5" stroke-linecap="round" stroke-linejoin="round"/>
</svg>
