<svg width="36" height="33" viewBox="0 0 36 33" fill="none" xmlns="http://www.w3.org/2000/svg">
<path d="M15 10.2027C15 10.0223 15.079 9.84926 15.2197 9.7217C15.3603 9.59413 15.5511 9.52246 15.75 9.52246H21.75C21.9489 9.52246 22.1397 9.59413 22.2803 9.7217C22.421 9.84926 22.5 10.0223 22.5 10.2027C22.5 10.3831 22.421 10.5561 22.2803 10.6837C22.1397 10.8113 21.9489 10.8829 21.75 10.8829H15.75C15.5511 10.8829 15.3603 10.8113 15.2197 10.6837C15.079 10.5561 15 10.3831 15 10.2027ZM15.75 12.2434C15.5511 12.2434 15.3603 12.3151 15.2197 12.4426C15.079 12.5702 15 12.7432 15 12.9236C15 13.104 15.079 13.2771 15.2197 13.4046C15.3603 13.5322 15.5511 13.6039 15.75 13.6039H21.75C21.9489 13.6039 22.1397 13.5322 22.2803 13.4046C22.421 13.2771 22.5 13.104 22.5 12.9236C22.5 12.7432 22.421 12.5702 22.2803 12.4426C22.1397 12.3151 21.9489 12.2434 21.75 12.2434H15.75ZM15 19.0457C15 18.8653 15.079 18.6923 15.2197 18.5647C15.3603 18.4372 15.5511 18.3655 15.75 18.3655H21.75C21.9489 18.3655 22.1397 18.4372 22.2803 18.5647C22.421 18.6923 22.5 18.8653 22.5 19.0457C22.5 19.2261 22.421 19.3991 22.2803 19.5267C22.1397 19.6543 21.9489 19.7259 21.75 19.7259H15.75C15.5511 19.7259 15.3603 19.6543 15.2197 19.5267C15.079 19.3991 15 19.2261 15 19.0457ZM15.75 21.0864C15.5511 21.0864 15.3603 21.1581 15.2197 21.2856C15.079 21.4132 15 21.5862 15 21.7666C15 21.9471 15.079 22.1201 15.2197 22.2476C15.3603 22.3752 15.5511 22.4469 15.75 22.4469H21.75C21.9489 22.4469 22.1397 22.3752 22.2803 22.2476C22.421 22.1201 22.5 21.9471 22.5 21.7666C22.5 21.5862 22.421 21.4132 22.2803 21.2856C22.1397 21.1581 21.9489 21.0864 21.75 21.0864H15.75Z" fill="#8FD4FF"/>
<path fill-rule="evenodd" clip-rule="evenodd" d="M7.5 18.3658C7.5 18.1854 7.57902 18.0124 7.71967 17.8848C7.86032 17.7572 8.05109 17.6855 8.25 17.6855H12C12.1989 17.6855 12.3897 17.7572 12.5303 17.8848C12.671 18.0124 12.75 18.1854 12.75 18.3658V21.7669C12.75 21.9474 12.671 22.1204 12.5303 22.2479C12.3897 22.3755 12.1989 22.4472 12 22.4472H8.25C8.05109 22.4472 7.86032 22.3755 7.71967 22.2479C7.57902 22.1204 7.5 21.9474 7.5 21.7669V18.3658ZM9 19.046V21.0867H11.25V19.046H9Z" fill="#8FD4FF"/>
<path d="M13.2798 10.684C13.4164 10.5558 13.492 10.3839 13.4903 10.2056C13.4886 10.0272 13.4097 9.85661 13.2707 9.73049C13.1316 9.60436 12.9435 9.53283 12.7469 9.53128C12.5502 9.52973 12.3608 9.59829 12.2193 9.7222L9.74957 11.9622L8.77982 11.0827C8.63837 10.9588 8.44892 10.8902 8.25227 10.8917C8.05562 10.8933 7.86751 10.9648 7.72846 11.091C7.5894 11.2171 7.51053 11.3877 7.50882 11.566C7.50711 11.7444 7.5827 11.9162 7.71932 12.0445L9.74957 13.8859L13.2798 10.684Z" fill="#8FD4FF"/>
<path fill-rule="evenodd" clip-rule="evenodd" d="M7.5 4.08105C6.70435 4.08105 5.94129 4.36772 5.37868 4.878C4.81607 5.38827 4.5 6.08035 4.5 6.80198V25.8485C4.5 26.5701 4.81607 27.2622 5.37868 27.7725C5.94129 28.2828 6.70435 28.5694 7.5 28.5694H22.5C23.2956 28.5694 24.0587 28.2828 24.6213 27.7725C25.1839 27.2622 25.5 26.5701 25.5 25.8485V6.80198C25.5 6.08035 25.1839 5.38827 24.6213 4.878C24.0587 4.36772 23.2956 4.08105 22.5 4.08105H7.5ZM6 6.80198C6 6.44117 6.15804 6.09513 6.43934 5.83999C6.72064 5.58485 7.10218 5.44152 7.5 5.44152H22.5C22.8978 5.44152 23.2794 5.58485 23.5607 5.83999C23.842 6.09513 24 6.44117 24 6.80198V25.8485C24 26.2093 23.842 26.5554 23.5607 26.8105C23.2794 27.0656 22.8978 27.209 22.5 27.209H7.5C7.10218 27.209 6.72064 27.0656 6.43934 26.8105C6.15804 26.5554 6 26.2093 6 25.8485V6.80198ZM27 10.8834C27 10.3422 27.2371 9.82309 27.659 9.44039C28.081 9.05768 28.6533 8.84268 29.25 8.84268C29.8467 8.84268 30.419 9.05768 30.841 9.44039C31.2629 9.82309 31.5 10.3422 31.5 10.8834V24.6941L29.25 27.7552L27 24.6941V10.8834ZM29.25 10.2031C29.0511 10.2031 28.8603 10.2748 28.7197 10.4024C28.579 10.53 28.5 10.703 28.5 10.8834V12.2438H30V10.8834C30 10.703 29.921 10.53 29.7803 10.4024C29.6397 10.2748 29.4489 10.2031 29.25 10.2031ZM29.25 25.3023L28.5 24.2819V13.6043H30V24.2819L29.25 25.3023Z" fill="#8FD4FF"/>
</svg>
