<svg width="28" height="32" viewBox="0 0 28 32" fill="none" xmlns="http://www.w3.org/2000/svg">
<path d="M14 3.91992H5.83333C5.21449 3.91992 4.621 4.19525 4.18342 4.68535C3.74583 5.17544 3.5 5.84016 3.5 6.53326V24.8266C3.5 25.5197 3.74583 26.1844 4.18342 26.6745C4.621 27.1646 5.21449 27.4399 5.83333 27.4399H22.1667C22.7855 27.4399 23.379 27.1646 23.8166 26.6745C24.2542 26.1844 24.5 25.5197 24.5 24.8266V15.6799" stroke="#016FB4" stroke-opacity="0.35" stroke-width="2" stroke-linecap="round" stroke-linejoin="round"/>
<path d="M21.4374 3.43002C21.9016 2.9102 22.5311 2.61816 23.1874 2.61816C23.8438 2.61816 24.4733 2.9102 24.9374 3.43002C25.4016 3.94985 25.6623 4.65488 25.6623 5.39002C25.6623 6.12516 25.4016 6.8302 24.9374 7.35002L14.4223 19.1283C14.1453 19.4383 13.803 19.6652 13.4271 19.7882L10.0753 20.8858C9.97489 20.9186 9.86847 20.9205 9.76717 20.8915C9.66587 20.8624 9.57341 20.8034 9.49947 20.7206C9.42552 20.6377 9.37282 20.5342 9.34686 20.4207C9.32091 20.3073 9.32267 20.1881 9.35195 20.0756L10.3319 16.3216C10.4422 15.9009 10.6452 15.5181 10.9223 15.2083L21.4374 3.43002Z" stroke="#016FB4" stroke-opacity="0.35" stroke-width="2" stroke-linecap="round" stroke-linejoin="round"/>
</svg>
