<svg width="37" height="34" viewBox="0 0 37 34" fill="none" xmlns="http://www.w3.org/2000/svg">
<path d="M18.5 4.25H7.70833C6.89058 4.25 6.10632 4.54851 5.52809 5.07986C4.94985 5.61122 4.625 6.33189 4.625 7.08333V26.9167C4.625 27.6681 4.94985 28.3888 5.52809 28.9201C6.10632 29.4515 6.89058 29.75 7.70833 29.75H29.2917C30.1094 29.75 30.8937 29.4515 31.4719 28.9201C32.0501 28.3888 32.375 27.6681 32.375 26.9167V17" stroke="#016FB4" stroke-width="2" stroke-linecap="round" stroke-linejoin="round"/>
<path d="M28.3291 3.71883C28.9424 3.15524 29.7742 2.83862 30.6416 2.83862C31.5089 2.83862 32.3408 3.15524 32.9541 3.71883C33.5674 4.28241 33.912 5.0468 33.912 5.84383C33.912 6.64086 33.5674 7.40524 32.9541 7.96883L19.059 20.7387C18.693 21.0748 18.2407 21.3208 17.744 21.4541L13.3148 22.6441C13.1821 22.6796 13.0415 22.6818 12.9077 22.6502C12.7738 22.6187 12.6516 22.5547 12.5539 22.4649C12.4562 22.3752 12.3865 22.2629 12.3522 22.1399C12.3179 22.0169 12.3203 21.8876 12.359 21.7657L13.654 17.6957C13.7997 17.2396 14.0679 16.8245 14.434 16.4887L28.3291 3.71883Z" stroke="#016FB4" stroke-width="2" stroke-linecap="round" stroke-linejoin="round"/>
</svg>
