<svg width="45" height="42" viewBox="0 0 45 42" fill="none" xmlns="http://www.w3.org/2000/svg">
<path d="M37.9688 21.0567H22.2364V6.50416C22.2364 6.32531 22.0782 6.17897 21.8848 6.17897H20.7422C18.4338 6.17547 16.1474 6.59423 14.0145 7.41114C11.8817 8.22806 9.94452 9.42701 8.31448 10.939C6.70921 12.4193 5.43014 14.174 4.54837 16.1056C3.6308 18.1089 3.15997 20.263 3.16409 22.4387C3.16031 24.574 3.61302 26.689 4.49617 28.6619C5.37932 30.6347 6.67548 32.4266 8.31009 33.9344C9.92288 35.4262 11.8037 36.601 13.8955 37.418C16.0613 38.2668 18.3901 38.7023 20.7422 38.6985C23.0507 38.702 25.3371 38.2832 27.4699 37.4663C29.6028 36.6494 31.5399 35.4505 33.1699 33.9385C34.7827 32.4466 36.0528 30.7068 36.9361 28.7719C37.8536 26.7686 38.3245 24.6145 38.3203 22.4387V21.3818C38.3203 21.203 38.1621 21.0567 37.9688 21.0567ZM31.0122 32.0239C29.6514 33.2728 28.0376 34.261 26.2633 34.932C24.4889 35.6031 22.5888 35.9437 20.6719 35.9343C16.8003 35.9181 13.1616 34.5157 10.4239 31.9832C7.66848 29.4345 6.15237 26.0443 6.15237 22.4387C6.15237 18.8331 7.66848 15.443 10.4239 12.8943C12.8233 10.6748 15.9126 9.32117 19.2481 9.01223V23.8208H35.2574C34.919 26.9224 33.4424 29.7963 31.0122 32.0239ZM41.836 18.7965L41.7217 17.6502C41.3482 13.9064 39.5508 10.374 36.6592 7.70739C33.7656 5.03589 29.9546 3.38256 25.8838 3.0327L24.6402 2.92702C24.4336 2.91076 24.2578 3.05709 24.2578 3.24815V18.8616C24.2578 19.0404 24.416 19.1868 24.6094 19.1868L41.4844 19.1461C41.6909 19.1461 41.8535 18.9835 41.836 18.7965ZM27.2373 16.4308V6.00011C30.0056 6.53606 32.546 7.8042 34.5498 9.65043C36.5581 11.504 37.9336 13.8617 38.5049 16.4023L27.2373 16.4308Z" fill="#C1C1C1"/>
</svg>
