<svg width="37" height="35" viewBox="0 0 37 35" fill="none" xmlns="http://www.w3.org/2000/svg">
<path d="M31.2188 17.3131H18.2832V5.34774C18.2832 5.20068 18.1531 5.08036 17.9942 5.08036H17.0547C15.1567 5.07749 13.2767 5.4218 11.523 6.09348C9.76938 6.76517 8.1766 7.75097 6.83635 8.99418C5.51646 10.2113 4.46478 11.6541 3.73977 13.2422C2.98532 14.8894 2.5982 16.6606 2.60158 18.4495C2.59848 20.2052 2.9707 21.9441 3.69685 23.5663C4.423 25.1884 5.48873 26.6617 6.83274 27.9015C8.15881 29.1281 9.7053 30.094 11.4252 30.7658C13.206 31.4637 15.1207 31.8218 17.0547 31.8186C18.9528 31.8215 20.8327 31.4772 22.5864 30.8055C24.34 30.1338 25.9328 29.148 27.2731 27.9048C28.5991 26.6782 29.6434 25.2477 30.3697 23.6568C31.1241 22.0096 31.5112 20.2384 31.5078 18.4495V17.5805C31.5078 17.4334 31.3778 17.3131 31.2188 17.3131ZM25.4989 26.3306C24.3801 27.3575 23.0532 28.17 21.5942 28.7218C20.1353 29.2735 18.573 29.5536 16.9969 29.5459C13.8136 29.5325 10.8218 28.3794 8.57072 26.2972C6.3052 24.2016 5.05862 21.4141 5.05862 18.4495C5.05862 15.4849 6.3052 12.6974 8.57072 10.6018C10.5436 8.77693 13.0837 7.66395 15.8262 7.40993V19.5859H28.9894C28.7112 22.136 27.4971 24.499 25.4989 26.3306ZM34.3985 15.4548L34.3045 14.5123C33.9974 11.434 32.5196 8.5296 30.142 6.33706C27.7628 4.1405 24.6293 2.78109 21.2822 2.49343L20.2597 2.40653C20.0899 2.39316 19.9453 2.51349 19.9453 2.67057V15.5083C19.9453 15.6554 20.0754 15.7757 20.2344 15.7757L34.1094 15.7422C34.2792 15.7422 34.4129 15.6086 34.3985 15.4548ZM22.3951 13.5096V4.9333C24.6713 5.37397 26.76 6.41666 28.4076 7.93467C30.0589 9.45875 31.1899 11.3973 31.6596 13.4862L22.3951 13.5096Z" fill="#016FB4"/>
</svg>
