<svg width="23" height="25" viewBox="0 0 23 25" fill="none" xmlns="http://www.w3.org/2000/svg">
<path d="M11.8387 4.98175L4.72357 12.7161C3.91496 13.5952 3.46069 14.7874 3.46069 16.0305C3.46069 17.2735 3.91496 18.4657 4.72357 19.3448C5.12403 19.7801 5.59944 20.1253 6.12266 20.3609C6.64588 20.5965 7.20666 20.7177 7.77299 20.7177C8.33932 20.7177 8.90011 20.5965 9.42333 20.3609C9.94655 20.1253 10.422 19.7801 10.8224 19.3448L19.2931 10.138C19.5601 9.84782 19.7719 9.50329 19.9165 9.12412C20.061 8.74494 20.1354 8.33853 20.1354 7.92811C20.1354 7.51768 20.061 7.11128 19.9165 6.7321C19.7719 6.35292 19.5601 6.0084 19.2931 5.71821C19.0261 5.42797 18.7092 5.19774 18.3603 5.04066C18.0115 4.88358 17.6376 4.80273 17.26 4.80273C16.8824 4.80273 16.5085 4.88358 16.1597 5.04066C15.8108 5.19774 15.4939 5.42797 15.2269 5.71821L6.75668 14.9255C6.62317 15.0706 6.51726 15.2429 6.44501 15.4324C6.37275 15.622 6.33556 15.8252 6.33556 16.0305C6.33556 16.2357 6.37275 16.4389 6.44501 16.6285C6.51726 16.818 6.62317 16.9903 6.75668 17.1354C7.02625 17.4283 7.39182 17.5929 7.77299 17.5929C8.15416 17.5929 8.51973 17.4283 8.7893 17.1354L15.9049 9.40103" stroke="#C1C1C1" stroke-width="2" stroke-linecap="round" stroke-linejoin="round"/>
</svg>
