<svg width="46" height="50" viewBox="0 0 46 50" fill="none" xmlns="http://www.w3.org/2000/svg">
<g clip-path="url(#clip0_138_22723)">
<path d="M34.2178 0.69429L35.0182 3.32945C35.2667 4.13123 35.6871 4.85968 36.2458 5.45653C36.8046 6.05339 37.4861 6.50208 38.2359 6.76672L40.6992 7.62296L40.7475 7.63772C40.9375 7.70927 41.1021 7.84213 41.2185 8.01798C41.3349 8.19382 41.3974 8.40398 41.3974 8.61945C41.3974 8.83492 41.3349 9.04507 41.2185 9.22092C41.1021 9.39676 40.9375 9.52963 40.7475 9.60117L38.2842 10.4574C37.5344 10.7221 36.8528 11.1707 36.2941 11.7676C35.7354 12.3645 35.315 13.0929 35.0665 13.8947L34.2661 16.5274C34.1993 16.7306 34.0751 16.9067 33.9107 17.0312C33.7463 17.1557 33.5499 17.2226 33.3484 17.2226C33.147 17.2226 32.9506 17.1557 32.7862 17.0312C32.6218 16.9067 32.4976 16.7306 32.4307 16.5274L31.628 13.8947C31.3815 13.0911 30.9625 12.3605 30.4044 11.7615C29.8461 11.1612 29.1639 10.7095 28.4126 10.4427L25.9493 9.58641C25.7593 9.51486 25.5948 9.382 25.4784 9.20616C25.362 9.03031 25.2995 8.82015 25.2995 8.60468C25.2995 8.38922 25.362 8.17906 25.4784 8.00321C25.5948 7.82737 25.7593 7.69451 25.9493 7.62296L28.4126 6.76672C29.1531 6.49492 29.8246 6.04303 30.3741 5.44659C30.9237 4.85015 31.3364 4.12543 31.5797 3.32945L32.3801 0.69675C32.4465 0.492651 32.5707 0.315724 32.7353 0.19052C32.9 0.0653164 33.097 -0.00195313 33.299 -0.00195312C33.501 -0.00195312 33.698 0.0653164 33.8627 0.19052C34.0273 0.315724 34.1514 0.490191 34.2178 0.69429ZM45.4993 20.2107L43.7375 19.6005C43.2029 19.4093 42.7173 19.0877 42.3189 18.6611C41.9205 18.2345 41.6203 17.7146 41.4421 17.1425L40.8671 15.2627C40.8195 15.1174 40.7309 14.9915 40.6134 14.9024C40.496 14.8133 40.3556 14.7654 40.2116 14.7654C40.0677 14.7654 39.9273 14.8133 39.8098 14.9024C39.6924 14.9915 39.6038 15.1174 39.5561 15.2627L38.9857 17.1425C38.8108 17.7109 38.5156 18.2285 38.123 18.6548C37.7304 19.0811 37.2512 19.4048 36.7225 19.6005L34.963 20.2107C34.8282 20.2628 34.7117 20.358 34.6293 20.4835C34.547 20.609 34.5028 20.7586 34.5028 20.9119C34.5028 21.0653 34.547 21.2149 34.6293 21.3403C34.7117 21.4658 34.8282 21.5611 34.963 21.6132L36.7225 22.2258C37.2587 22.4171 37.7458 22.7396 38.1451 23.1675C38.5444 23.5955 38.8448 24.1172 39.0225 24.6912L39.5929 26.571C39.6406 26.7163 39.7292 26.8423 39.8466 26.9313C39.9641 27.0204 40.1045 27.0683 40.2484 27.0683C40.3924 27.0683 40.5328 27.0204 40.6502 26.9313C40.7677 26.8423 40.8563 26.7163 40.9039 26.571L41.4766 24.6912C41.6551 24.1189 41.9556 23.5988 42.3544 23.1722C42.7532 22.7455 43.2393 22.4241 43.7743 22.2332L45.5338 21.623C45.6687 21.5709 45.7852 21.4757 45.8676 21.3502C45.9499 21.2247 45.9941 21.0751 45.9941 20.9218C45.9941 20.7684 45.9499 20.6188 45.8676 20.4934C45.7852 20.3679 45.6687 20.2726 45.5338 20.2205L45.4993 20.2107ZM14.9484 24.6051C14.6434 24.6051 14.3509 24.4755 14.1353 24.2448C13.9196 24.014 13.7984 23.7011 13.7984 23.3749C13.7984 23.0486 13.9196 22.7357 14.1353 22.5049C14.3509 22.2742 14.6434 22.1446 14.9484 22.1446C15.2534 22.1446 15.5459 22.2742 15.7616 22.5049C15.9773 22.7357 16.0984 23.0486 16.0984 23.3749C16.0984 23.7011 15.9773 24.014 15.7616 24.2448C15.5459 24.4755 15.2534 24.6051 14.9484 24.6051ZM16.0984 33.2167C16.0984 33.543 15.9773 33.8559 15.7616 34.0866C15.5459 34.3173 15.2534 34.4469 14.9484 34.4469C14.6434 34.4469 14.3509 34.3173 14.1353 34.0866C13.9196 33.8559 13.7984 33.543 13.7984 33.2167C13.7984 32.8904 13.9196 32.5775 14.1353 32.3468C14.3509 32.1161 14.6434 31.9865 14.9484 31.9865C15.2534 31.9865 15.5459 32.1161 15.7616 32.3468C15.9773 32.5775 16.0984 32.8904 16.0984 33.2167ZM13.7984 7.38183H23.2399C23.0943 7.77412 23.0126 8.19023 22.9984 8.61207C23.0065 9.35125 23.2334 10.0687 23.6467 10.6611C24.06 11.2535 24.6383 11.6905 25.2984 11.9091L26.4231 12.3028H12.6484C12.3434 12.3028 12.0509 12.4324 11.8353 12.6631C11.6196 12.8938 11.4984 13.2067 11.4984 13.533C11.4984 13.8593 11.6196 14.1722 11.8353 14.4029C12.0509 14.6336 12.3434 14.7632 12.6484 14.7632H29.5143L30.2434 17.2237C30.4504 17.8585 30.8184 18.4195 31.3014 18.8476C31.6081 19.0904 31.9454 19.2626 32.3134 19.3643C32.1565 19.863 32.117 20.3954 32.1984 20.9144C32.1977 21.3365 32.2751 21.7546 32.4261 22.1446H21.8484C21.5434 22.1446 21.2509 22.2742 21.0353 22.5049C20.8196 22.7357 20.6984 23.0486 20.6984 23.3749C20.6984 23.7011 20.8196 24.014 21.0353 24.2448C21.2509 24.4755 21.5434 24.6051 21.8484 24.6051H33.3484C33.5503 24.6051 33.7486 24.5482 33.9234 24.4403C34.0982 24.3323 34.2434 24.177 34.3443 23.99L36.0164 24.5559C36.2035 24.6379 36.3722 24.7527 36.5224 24.9003C36.6685 25.0604 36.7786 25.254 36.8444 25.4663L37.3964 27.3362C37.5394 27.7683 37.7644 28.164 38.0574 28.4986C38.3503 28.8331 38.7047 29.0991 39.0984 29.28V34.4469C39.0984 36.4046 38.3715 38.2821 37.0775 39.6664C35.7835 41.0507 34.0284 41.8283 32.1984 41.8283H13.7984C11.9684 41.8283 10.2134 41.0507 8.9194 39.6664C7.6254 38.2821 6.89844 36.4046 6.89844 34.4469V14.7632C6.89844 12.8056 7.6254 10.9281 8.9194 9.54379C10.2134 8.15951 11.9684 7.38183 13.7984 7.38183ZM14.9484 27.0656C15.8634 27.0656 16.741 26.6767 17.388 25.9846C18.035 25.2924 18.3984 24.3537 18.3984 23.3749C18.3984 22.396 18.035 21.4573 17.388 20.7651C16.741 20.073 15.8634 19.6842 14.9484 19.6842C14.0334 19.6842 13.1559 20.073 12.5089 20.7651C11.8619 21.4573 11.4984 22.396 11.4984 23.3749C11.4984 24.3537 11.8619 25.2924 12.5089 25.9846C13.1559 26.6767 14.0334 27.0656 14.9484 27.0656ZM18.3984 33.2167C18.3984 32.2379 18.035 31.2991 17.388 30.607C16.741 29.9149 15.8634 29.526 14.9484 29.526C14.0334 29.526 13.1559 29.9149 12.5089 30.607C11.8619 31.2991 11.4984 32.2379 11.4984 33.2167C11.4984 34.1955 11.8619 35.1343 12.5089 35.8264C13.1559 36.5186 14.0334 36.9074 14.9484 36.9074C15.8634 36.9074 16.741 36.5186 17.388 35.8264C18.035 35.1343 18.3984 34.1955 18.3984 33.2167ZM21.8484 31.9865C21.5434 31.9865 21.2509 32.1161 21.0353 32.3468C20.8196 32.5775 20.6984 32.8904 20.6984 33.2167C20.6984 33.543 20.8196 33.8559 21.0353 34.0866C21.2509 34.3173 21.5434 34.4469 21.8484 34.4469H33.3484C33.6534 34.4469 33.9459 34.3173 34.1616 34.0866C34.3773 33.8559 34.4984 33.543 34.4984 33.2167C34.4984 32.8904 34.3773 32.5775 34.1616 32.3468C33.9459 32.1161 33.6534 31.9865 33.3484 31.9865H21.8484Z" fill="#C1C1C1"/>
</g>
<defs>
<clipPath id="clip0_138_22723">
<rect width="46" height="49.2093" fill="white"/>
</clipPath>
</defs>
</svg>
