<svg width="23" height="23" viewBox="0 0 23 23" fill="none" xmlns="http://www.w3.org/2000/svg">
<path d="M3.83337 4.79199C3.83339 4.66455 3.85883 4.53839 3.90819 4.4209C3.95756 4.30341 4.02986 4.19695 4.12087 4.10774C5.16531 3.08389 6.56065 2.49652 8.02288 2.46519C9.48511 2.43385 10.9043 2.96091 11.9917 3.93907L12.328 4.25341C13.0271 4.86587 13.9248 5.20352 14.8542 5.20352C15.7836 5.20352 16.6813 4.86587 17.3804 4.25341L17.619 4.03586C18.2036 3.57299 19.0824 3.94291 19.1619 4.6837L19.1667 4.79199V13.417C19.1667 13.5444 19.1413 13.6706 19.0919 13.7881C19.0425 13.9056 18.9702 14.012 18.8792 14.1012C17.8348 15.1251 16.4394 15.7125 14.9772 15.7438C13.515 15.7751 12.0958 15.2481 11.0084 14.2699L10.672 13.9556C9.99501 13.3624 9.13082 13.0263 8.2309 13.0064C7.33097 12.9864 6.45272 13.2837 5.75004 13.8463V20.1253C5.74977 20.3696 5.65624 20.6045 5.48856 20.7821C5.32088 20.9597 5.09171 21.0666 4.84787 21.0809C4.60403 21.0953 4.36393 21.0159 4.17662 20.8592C3.98931 20.7024 3.86893 20.48 3.84008 20.2374L3.83337 20.1253V4.79199Z" fill="#C1C1C1"/>
</svg>
