<svg width="42" height="33" viewBox="0 0 42 33" fill="none" xmlns="http://www.w3.org/2000/svg">
<path d="M0.46875 16.3962C0.46875 17.0591 1.13625 17.4598 1.96275 17.4598C2.47275 17.4598 2.877 17.2666 3.22875 16.9902L20.385 4.71182C20.5778 4.55979 20.7893 4.5044 21.0173 4.5044C21.2288 4.5044 21.4223 4.55979 21.6322 4.71182L38.7712 16.9902C39.1403 17.2666 39.5445 17.4598 40.0373 17.4598C40.863 17.4598 41.5312 17.0591 41.5312 16.3962C41.5312 15.9819 41.3377 15.7197 41.004 15.4846L34.9215 11.1344V2.97166C34.9215 2.36411 34.4295 1.97754 33.6562 1.97754H31.3538C30.5977 1.97754 30.0705 2.36411 30.0705 2.97166V7.66768L23.109 2.66759C22.494 2.21207 21.738 1.99168 21 1.99168C20.2612 1.99168 19.5233 2.21266 18.8903 2.66818L0.996 15.4846C0.6795 15.7197 0.46875 15.9819 0.46875 16.3962ZM5.496 27.9839C5.496 29.9038 6.97275 31.0228 9.45075 31.0228H16.5705V21.2024C16.5705 20.5671 17.115 20.1535 17.9235 20.1535H24.129C24.9375 20.1535 25.4647 20.5671 25.4647 21.2024V31.0228H32.5665C35.0445 31.0228 36.504 29.9038 36.504 27.9839V17.8741L21.5798 7.30822C21.3863 7.17033 21.1755 7.10138 20.9647 7.10138C20.7712 7.10138 20.5777 7.17032 20.367 7.32236L5.496 17.9431V27.9839Z" fill="#B9B6B6"/>
</svg>
