<svg width="45" height="45" viewBox="0 0 45 45" fill="none" xmlns="http://www.w3.org/2000/svg">
<path d="M40.2318 19.971C40.8456 18.2865 41.02 16.4733 40.7383 14.7027C40.4566 12.9321 39.7282 11.2626 38.6219 9.85173C37.5156 8.4409 36.068 7.33537 34.4157 6.63956C32.7633 5.94375 30.9609 5.68063 29.1786 5.87505C28.0262 4.50091 26.5424 3.44333 24.8675 2.80228C23.1925 2.16122 21.3818 1.95786 19.6064 2.21141C17.831 2.46497 16.1495 3.16706 14.721 4.25134C13.2925 5.33562 12.164 6.76626 11.4423 8.40806C9.67639 8.7187 8.01882 9.47442 6.6262 10.6038C5.23358 11.7332 4.15188 13.199 3.4833 14.8627C2.81472 16.5265 2.58133 18.3332 2.80517 20.1122C3.02902 21.8911 3.70271 23.5837 4.76261 25.0299C4.18238 26.6258 3.99549 28.338 4.2178 30.0214C4.44011 31.7048 5.06505 33.3098 6.03966 34.7003C7.01426 36.0908 8.30978 37.2258 9.81638 38.009C11.323 38.7923 12.9962 39.2007 14.6943 39.1997C15.0731 39.1996 15.4516 39.1785 15.828 39.1364C16.9815 40.5081 18.4655 41.5633 20.14 42.2023C21.8145 42.8414 23.6242 43.0431 25.3983 42.7886C27.1724 42.534 28.8524 41.8316 30.2796 40.7475C31.7069 39.6635 32.8343 38.2336 33.5556 36.5928C35.3215 36.2822 36.9791 35.5265 38.3717 34.3971C39.7643 33.2677 40.846 31.8019 41.5146 30.1381C42.1832 28.4744 42.4166 26.6677 42.1927 24.8887C41.9689 23.1097 41.2952 21.4172 40.2353 19.971H40.2318ZM31.9577 10.2485C33.386 10.6308 34.6353 11.5012 35.4887 12.7085C36.3422 13.9158 36.746 15.3839 36.63 16.8579L29.8818 12.9608C29.5611 12.7757 29.1973 12.6782 28.8271 12.6782C28.4568 12.6782 28.093 12.7757 27.7724 12.9608L21.0927 16.8174V14.3811L27.1571 10.8813C27.8757 10.4635 28.67 10.1924 29.494 10.0838C30.3181 9.97519 31.1555 10.0312 31.9577 10.2485ZM23.9052 21.6883V23.3126L22.4989 24.1247L21.0927 23.3126V21.6883L22.4989 20.8762L23.9052 21.6883ZM14.7646 12.6567C14.7645 11.5037 15.0795 10.3726 15.6755 9.38561C16.2714 8.39859 17.1257 7.59315 18.1461 7.05627C19.1664 6.5194 20.3141 6.2715 21.4651 6.33935C22.6161 6.40721 23.7267 6.78823 24.6769 7.44126L17.9286 11.3366C17.608 11.5217 17.3418 11.7879 17.1566 12.1085C16.9715 12.4291 16.874 12.7927 16.8739 13.1629V20.8762L14.7646 19.6581V12.6567ZM7.79132 15.6327C8.42889 14.5227 9.38979 13.6335 10.5458 13.0838V20.8762C10.5456 21.2467 10.6429 21.6108 10.8281 21.9317C11.0132 22.2526 11.2796 22.5191 11.6005 22.7043L18.2802 26.5592L16.1708 27.7739L10.1064 24.2758C8.65343 23.4365 7.59334 22.0544 7.15921 20.4336C6.72507 18.8128 6.95245 17.0859 7.79132 15.6327ZM13.0402 34.7524C11.6119 34.3701 10.3626 33.4997 9.50915 32.2924C8.65567 31.0851 8.25189 29.617 8.36789 28.143L15.1161 32.0401C15.4368 32.2252 15.8005 32.3227 16.1708 32.3227C16.5411 32.3227 16.9048 32.2252 17.2255 32.0401L23.9052 28.1835V30.6198L17.8407 34.1196C17.1222 34.5374 16.3279 34.8084 15.5039 34.9171C14.6798 35.0257 13.8424 34.9697 13.0402 34.7524ZM30.2333 32.3442C30.2333 33.4972 29.9184 34.6283 29.3224 35.6153C28.7265 36.6023 27.8722 37.4077 26.8518 37.9446C25.8314 38.4815 24.6838 38.7294 23.5328 38.6615C22.3818 38.5937 21.2712 38.2127 20.321 37.5596L27.0693 33.6643C27.3899 33.4792 27.6561 33.213 27.8412 32.8924C28.0264 32.5718 28.1239 32.2081 28.1239 31.8379V24.1247L30.2333 25.3428V32.3442ZM37.2066 29.3682C36.569 30.4782 35.6081 31.3674 34.4521 31.917V24.1247C34.4523 23.7542 34.3549 23.3901 34.1698 23.0692C33.9847 22.7483 33.7182 22.4818 33.3974 22.2965L26.7177 18.4417L28.8271 17.227L34.8915 20.7286C36.3435 21.5679 37.4029 22.9493 37.837 24.5693C38.2711 26.1893 38.0443 27.9153 37.2066 29.3682Z" fill="#C1C1C1"/>
</svg>
