<svg width="35" height="35" viewBox="0 0 35 35" fill="none" xmlns="http://www.w3.org/2000/svg">
<path d="M1.087 20.912C0.916333 20.4427 0.788333 19.888 0.703 19.248C0.617667 18.608 0.575 17.9893 0.575 17.392C0.575 16.624 0.617667 15.8987 0.703 15.216C0.831 14.5333 1.00167 14 1.215 13.616H13.823V0.879997C14.2923 0.666664 14.847 0.517331 15.487 0.431999C16.1697 0.346664 16.8523 0.303997 17.535 0.303997C18.2603 0.303997 18.943 0.346664 19.583 0.431999C20.223 0.517331 20.735 0.666664 21.119 0.879997V13.616H33.919C34.1323 14.0427 34.2603 14.5973 34.303 15.28C34.3883 15.9627 34.431 16.6667 34.431 17.392C34.431 18.0747 34.3883 18.736 34.303 19.376C34.2603 20.016 34.1323 20.528 33.919 20.912H21.119V33.648C20.6923 33.8187 20.159 33.9467 19.519 34.032C18.879 34.1173 18.239 34.16 17.599 34.16C16.9163 34.16 16.2123 34.1173 15.487 34.032C14.8043 33.9467 14.2497 33.7973 13.823 33.584V20.912H1.087Z" fill="#00AEEF"/>
</svg>
