<svg width="80" height="83" viewBox="0 0 80 83" fill="none" xmlns="http://www.w3.org/2000/svg">
<ellipse cx="40" cy="41.5" rx="40" ry="38.5" fill="#00AEEF"/>
<path d="M23.087 46.912C22.9163 46.4427 22.7883 45.888 22.703 45.248C22.6177 44.608 22.575 43.9893 22.575 43.392C22.575 42.624 22.6177 41.8987 22.703 41.216C22.831 40.5333 23.0017 40 23.215 39.616H35.823V26.88C36.2923 26.6667 36.847 26.5173 37.487 26.432C38.1697 26.3467 38.8523 26.304 39.535 26.304C40.2603 26.304 40.943 26.3467 41.583 26.432C42.223 26.5173 42.735 26.6667 43.119 26.88V39.616H55.919C56.1323 40.0427 56.2603 40.5973 56.303 41.28C56.3883 41.9627 56.431 42.6667 56.431 43.392C56.431 44.0747 56.3883 44.736 56.303 45.376C56.2603 46.016 56.1323 46.528 55.919 46.912H43.119V59.648C42.6923 59.8187 42.159 59.9467 41.519 60.032C40.879 60.1173 40.239 60.16 39.599 60.16C38.9163 60.16 38.2123 60.1173 37.487 60.032C36.8043 59.9467 36.2497 59.7973 35.823 59.584V46.912H23.087Z" fill="white"/>
</svg>
