<svg width="40" height="40" viewBox="0 0 40 40" fill="none" xmlns="http://www.w3.org/2000/svg">
<path d="M31.783 8.02062C29.0484 5.33366 25.4391 3.66228 21.5774 3.29463C17.7157 2.92698 13.8436 3.88609 10.6287 6.00663C7.41375 8.12717 5.05744 11.2762 3.96598 14.9109C2.87453 18.5456 3.11633 22.4381 4.64971 25.9174C4.80953 26.2408 4.86196 26.6048 4.79971 26.9587L3.33304 33.8409C3.27654 34.1047 3.28807 34.3782 3.36662 34.6366C3.44517 34.895 3.58826 35.1303 3.78304 35.3214C3.94272 35.4762 4.13283 35.5977 4.34193 35.6788C4.55103 35.7599 4.77479 35.7988 4.99971 35.7932H5.33304L12.4664 34.394C12.8289 34.3515 13.1966 34.402 13.533 34.5405C17.0972 36.0373 21.0847 36.2734 24.808 35.2079C28.5314 34.1424 31.7572 31.8422 33.9295 28.7038C36.1017 25.5655 37.0843 21.7856 36.7076 18.0158C36.331 14.2461 34.6189 10.7227 31.8664 8.05316L31.783 8.02062ZM13.333 21.1504C13.0034 21.1504 12.6812 21.055 12.4071 20.8762C12.133 20.6974 11.9194 20.4433 11.7932 20.146C11.6671 19.8487 11.6341 19.5216 11.6984 19.206C11.7627 18.8904 11.9214 18.6005 12.1545 18.3729C12.3876 18.1454 12.6846 17.9905 13.0079 17.9277C13.3312 17.8649 13.6663 17.8971 13.9708 18.0203C14.2754 18.1434 14.5357 18.3519 14.7188 18.6195C14.902 18.8871 14.9997 19.2016 14.9997 19.5234C14.9997 19.9549 14.8241 20.3687 14.5116 20.6739C14.199 20.979 13.7751 21.1504 13.333 21.1504ZM19.9997 21.1504C19.6701 21.1504 19.3478 21.055 19.0738 20.8762C18.7997 20.6974 18.5861 20.4433 18.4599 20.146C18.3338 19.8487 18.3008 19.5216 18.3651 19.206C18.4294 18.8904 18.5881 18.6005 18.8212 18.3729C19.0543 18.1454 19.3513 17.9905 19.6746 17.9277C19.9979 17.8649 20.333 17.8971 20.6375 18.0203C20.9421 18.1434 21.2024 18.3519 21.3855 18.6195C21.5686 18.8871 21.6664 19.2016 21.6664 19.5234C21.6664 19.9549 21.4908 20.3687 21.1782 20.6739C20.8657 20.979 20.4417 21.1504 19.9997 21.1504ZM26.6664 21.1504C26.3367 21.1504 26.0145 21.055 25.7404 20.8762C25.4663 20.6974 25.2527 20.4433 25.1266 20.146C25.0004 19.8487 24.9674 19.5216 25.0317 19.206C25.096 18.8904 25.2548 18.6005 25.4879 18.3729C25.721 18.1454 26.0179 17.9905 26.3412 17.9277C26.6645 17.8649 26.9996 17.8971 27.3042 18.0203C27.6087 18.1434 27.869 18.3519 28.0522 18.6195C28.2353 18.8871 28.333 19.2016 28.333 19.5234C28.333 19.9549 28.1574 20.3687 27.8449 20.6739C27.5323 20.979 27.1084 21.1504 26.6664 21.1504Z" fill="white"/>
</svg>
