<svg width="26" height="25" viewBox="0 0 26 25" fill="none" xmlns="http://www.w3.org/2000/svg">
<path d="M15.0225 5.82195C15.0226 6.07746 14.9703 6.33047 14.8687 6.56656C14.7671 6.80264 14.6181 7.01717 14.4303 7.1979C14.2425 7.37863 14.0194 7.52201 13.774 7.61986C13.5285 7.71771 13.2654 7.76812 12.9997 7.7682C12.734 7.76829 12.4708 7.71804 12.2253 7.62034C11.9798 7.52264 11.7567 7.3794 11.5687 7.19878C11.3807 7.01817 11.2316 6.80374 11.1299 6.56771C11.0281 6.33169 10.9757 6.07871 10.9756 5.8232C10.9754 5.30719 11.1884 4.81225 11.5678 4.44726C11.9471 4.08226 12.4617 3.87712 12.9984 3.87695C13.535 3.87679 14.0498 4.08161 14.4294 4.44637C14.809 4.81113 15.0223 5.30594 15.0225 5.82195Z" fill="#016FB4"/>
<path d="M12.9994 14.4444C14.1165 14.4444 15.0222 13.5736 15.0222 12.4994C15.0222 11.4253 14.1165 10.5544 12.9994 10.5544C11.8822 10.5544 10.9766 11.4253 10.9766 12.4994C10.9766 13.5736 11.8822 14.4444 12.9994 14.4444Z" fill="#016FB4"/>
<path d="M12.9994 21.1232C14.1165 21.1232 15.0222 20.2523 15.0222 19.1782C15.0222 18.104 14.1165 17.2332 12.9994 17.2332C11.8822 17.2332 10.9766 18.104 10.9766 19.1782C10.9766 20.2523 11.8822 21.1232 12.9994 21.1232Z" fill="#016FB4"/>
</svg>
