<svg width="45" height="45" viewBox="0 0 45 45" fill="none" xmlns="http://www.w3.org/2000/svg">
<path d="M22.5 41.25C20.0377 41.25 17.5995 40.765 15.3247 39.8227C13.0498 38.8805 10.9828 37.4994 9.24175 35.7583C5.72544 32.2419 3.75 27.4728 3.75 22.5C3.75 17.5272 5.72544 12.7581 9.24175 9.24175C12.7581 5.72544 17.5272 3.75 22.5 3.75C32.8125 3.75 41.25 11.25 41.25 20.625C41.25 23.6087 40.0647 26.4702 37.955 28.58C35.8452 30.6897 32.9837 31.875 30 31.875H26.625C26.0625 31.875 25.6875 32.25 25.6875 32.8125C25.6875 33 25.875 33.1875 25.875 33.375C26.625 34.3125 27 35.4375 27 36.5625C27.1875 39.1875 25.125 41.25 22.5 41.25ZM22.5 7.5C18.5218 7.5 14.7064 9.08035 11.8934 11.8934C9.08035 14.7064 7.5 18.5218 7.5 22.5C7.5 26.4782 9.08035 30.2936 11.8934 33.1066C14.7064 35.9196 18.5218 37.5 22.5 37.5C23.0625 37.5 23.4375 37.125 23.4375 36.5625C23.4375 36.1875 23.25 36 23.25 35.8125C22.5 34.875 22.125 33.9375 22.125 32.8125C22.125 30.1875 24.1875 28.125 26.8125 28.125H30C31.9891 28.125 33.8968 27.3348 35.3033 25.9283C36.7098 24.5218 37.5 22.6141 37.5 20.625C37.5 13.3125 30.75 7.5 22.5 7.5ZM12.1875 18.75C13.6875 18.75 15 20.0625 15 21.5625C15 23.0625 13.6875 24.375 12.1875 24.375C10.6875 24.375 9.375 23.0625 9.375 21.5625C9.375 20.0625 10.6875 18.75 12.1875 18.75ZM17.8125 11.25C19.3125 11.25 20.625 12.5625 20.625 14.0625C20.625 15.5625 19.3125 16.875 17.8125 16.875C16.3125 16.875 15 15.5625 15 14.0625C15 12.5625 16.3125 11.25 17.8125 11.25ZM27.1875 11.25C28.6875 11.25 30 12.5625 30 14.0625C30 15.5625 28.6875 16.875 27.1875 16.875C25.6875 16.875 24.375 15.5625 24.375 14.0625C24.375 12.5625 25.6875 11.25 27.1875 11.25ZM32.8125 18.75C34.3125 18.75 35.625 20.0625 35.625 21.5625C35.625 23.0625 34.3125 24.375 32.8125 24.375C31.3125 24.375 30 23.0625 30 21.5625C30 20.0625 31.3125 18.75 32.8125 18.75Z" fill="#C1C1C1"/>
</svg>
