<svg width="40" height="39" viewBox="0 0 40 39" fill="none" xmlns="http://www.w3.org/2000/svg">
<path d="M36.6627 1.47021L38.4909 3.25264C40.444 5.15693 40.444 8.24189 38.4909 10.1462L34.0846 14.4423L25.1784 5.76631L29.5846 1.47021C31.5377 -0.434082 34.7018 -0.434082 36.6549 1.47021H36.6627ZM3.50648 26.904L23.4127 7.48779L32.319 16.1714L12.4049 35.58C11.8815 36.0903 11.2252 36.4636 10.5143 36.6616L2.38929 38.9239C1.73304 39.1067 1.02992 38.9315 0.54554 38.4593C0.0611655 37.987 -0.118522 37.3015 0.068978 36.6616L2.38929 28.7397C2.59242 28.039 2.97523 27.4067 3.49867 26.8964L3.50648 26.904ZM19.483 7.87627L8.07679 18.9974L1.24867 12.3323C-0.212272 10.9079 -0.212272 8.59228 1.24867 7.16025L7.35023 1.21885C8.81117 -0.205566 11.1862 -0.205566 12.6549 1.21885L14.2018 2.72705C14.1784 2.7499 14.1471 2.77275 14.1237 2.79561L9.12367 7.6706C8.63929 8.14287 8.63929 8.91982 9.12367 9.39209C9.60804 9.86435 10.4049 9.86435 10.8893 9.39209L15.8893 4.51709C15.9127 4.49424 15.9362 4.46377 15.9596 4.44092L19.483 7.87627ZM31.9205 20.0028L35.444 23.4382C35.4205 23.461 35.3893 23.4839 35.3659 23.5067L30.3659 28.3817C29.8815 28.854 29.8815 29.631 30.3659 30.1032C30.8502 30.5755 31.6471 30.5755 32.1315 30.1032L37.1315 25.2282C37.1549 25.2054 37.1784 25.1749 37.2018 25.1521L38.7487 26.6679C40.2096 28.0923 40.2096 30.4079 38.7487 31.8399L32.6471 37.7813C31.1862 39.2058 28.8112 39.2058 27.3424 37.7813L20.5143 31.1239L31.9205 20.0028Z" fill="#C1C1C1"/>
</svg>
