<svg width="24" height="24" viewBox="0 0 24 24" fill="none" xmlns="http://www.w3.org/2000/svg">
<path d="M18.9738 4.02636C19.1199 3.98825 19.2735 3.99152 19.4179 4.0358C19.5623 4.08009 19.6917 4.16368 19.7921 4.27738C19.8924 4.39108 19.9597 4.53049 19.9866 4.68027C20.0135 4.83006 19.9989 4.98442 19.9444 5.12639L15.0215 17.9559C14.9728 18.083 14.8937 18.1959 14.7914 18.2848C14.689 18.3737 14.5665 18.4357 14.4347 18.4653C14.3029 18.4949 14.1658 18.4913 14.0358 18.4547C13.9057 18.4181 13.7866 18.3497 13.689 18.2555L10.9141 15.5779L9.92701 16.5728C9.40518 17.0992 8.51248 16.7267 8.51248 15.9818V13.2603L4.25329 9.15071C4.14761 9.04872 4.07088 8.92009 4.03104 8.77814C3.99119 8.63618 3.98968 8.48606 4.02667 8.34332C4.06365 8.20058 4.13779 8.0704 4.24139 7.96627C4.345 7.86214 4.47432 7.78784 4.61595 7.75106L18.9738 4.02636ZM17.2393 7.58965L10.6769 13.0583L13.9343 16.202L17.2393 7.58965ZM15.9445 6.52191L6.45386 8.98269L9.48312 11.9045L15.9445 6.52025V6.52191Z" fill="white"/>
</svg>
