<svg width="36" height="36" viewBox="0 0 36 36" fill="none" xmlns="http://www.w3.org/2000/svg">
<path d="M24 33C21.171 33 19.758 33 18.879 32.121C18 31.242 18 29.829 18 27V9C18 6.171 18 4.758 18.879 3.879C19.758 3 21.171 3 24 3H27C29.829 3 31.242 3 32.121 3.879C33 4.758 33 6.171 33 9V27C33 29.829 33 31.242 32.121 32.121C31.242 33 29.829 33 27 33H24Z" stroke="#8FD4FF" stroke-width="1.5"/>
<path d="M18 18H21M18 9H21M18 27H21M18 22.5H22.5M18 13.5H22.5" stroke="#8FD4FF" stroke-width="1.5" stroke-linecap="round"/>
<path d="M3 8.7V7.275C3 4.914 5.0145 3 7.5 3C9.9855 3 12 4.914 12 7.275V8.7M3 8.7C3 8.7 4.6875 10.125 7.5 10.125C10.3125 10.125 12 8.7 12 8.7M3 8.7V23.301C3 24.1875 3 24.6315 3.057 25.0665C3.124 25.5825 3.249 26.085 3.432 26.574C3.585 26.9865 3.7935 27.384 4.212 28.1775L5.982 31.5405M12 8.7V23.301C12 24.1875 12 24.6315 11.943 25.0665C11.877 25.5825 11.752 26.085 11.568 26.574C11.415 26.9865 11.2065 27.384 10.788 28.1775L9.018 31.5405M5.982 31.5405L6.414 32.3625C6.5195 32.5578 6.67651 32.7205 6.86796 32.8329C7.05942 32.9453 7.27801 33.0031 7.5 33C7.72199 33.0031 7.94058 32.9453 8.13204 32.8329C8.32349 32.7205 8.4805 32.5578 8.586 32.3625L9.018 31.5405M5.982 31.5405H9.018" stroke="#8FD4FF" stroke-width="1.5"/>
</svg>
