<svg width="40" height="40" viewBox="0 0 40 40" fill="none" xmlns="http://www.w3.org/2000/svg">
<path d="M15.6325 10.6798C14.1865 10.7357 12.8793 11.2532 12.1804 11.9548C12.1032 12.0322 12.0116 12.0936 11.9107 12.1354C11.8099 12.1773 11.7018 12.1988 11.5926 12.1988C11.4835 12.1987 11.3754 12.1771 11.2746 12.1352C11.1737 12.0933 11.0821 12.0319 11.005 11.9544C10.9278 11.877 10.8666 11.7851 10.8249 11.684C10.7831 11.5828 10.7617 11.4744 10.7617 11.365C10.7618 11.2555 10.7833 11.1471 10.8251 11.046C10.8669 10.9449 10.9282 10.853 11.0054 10.7757C12.0832 9.69484 13.8383 9.08151 15.5677 9.01401C17.3086 8.94651 19.2092 9.42401 20.5405 10.759C20.6963 10.9154 20.7838 11.1274 20.7837 11.3485C20.7836 11.5695 20.696 11.7815 20.5401 11.9378C20.3841 12.094 20.1727 12.1818 19.9522 12.1817C19.7318 12.1816 19.5204 12.0937 19.3646 11.9373C18.4588 11.0282 17.0677 10.6232 15.6325 10.679" fill="#00AEEF"/>
<path fill-rule="evenodd" clip-rule="evenodd" d="M24.0993 22.82C25.7469 20.8673 26.6493 18.3912 26.6455 15.8333C26.6455 9.85 21.809 5 15.8423 5C9.87559 5 5.03906 9.85 5.03906 15.8333C5.03906 21.8167 9.87559 26.6667 15.8423 26.6667C18.4974 26.6667 20.9281 25.7067 22.8096 24.1133L22.4904 25.9533L28.7347 32.215L32.1785 28.7617L25.9342 22.5L24.0993 22.82ZM15.8423 24.1667C20.432 24.1667 24.1525 20.4358 24.1525 15.8333C24.1525 11.2308 20.432 7.5 15.8423 7.5C11.2526 7.5 7.53212 11.2308 7.53212 15.8333C7.53212 20.4358 11.2526 24.1667 15.8423 24.1667Z" fill="#00AEEF"/>
<path d="M29.9102 33.3938L33.3539 29.9404L34.4808 31.0704C35.1148 31.7063 35.1148 32.7371 34.4808 33.3721L33.3323 34.5238C32.6982 35.1596 31.6703 35.1596 31.037 34.5238L29.9102 33.3938Z" fill="#00AEEF"/>
</svg>
