<svg width="36" height="33" viewBox="0 0 36 33" fill="none" xmlns="http://www.w3.org/2000/svg">
<path d="M18 8.25C18.2984 8.25 18.5845 8.35865 18.7955 8.55205C19.0065 8.74544 19.125 9.00775 19.125 9.28125V12.375C19.125 12.6485 19.0065 12.9108 18.7955 13.1042C18.5845 13.2976 18.2984 13.4062 18 13.4062C17.7016 13.4062 17.4155 13.2976 17.2045 13.1042C16.9935 12.9108 16.875 12.6485 16.875 12.375V9.28125C16.875 9.00775 16.9935 8.74544 17.2045 8.55205C17.4155 8.35865 17.7016 8.25 18 8.25ZM8.397 11.8222C8.60797 11.6289 8.89406 11.5203 9.19237 11.5203C9.49068 11.5203 9.77678 11.6289 9.98775 11.8222L12.0465 13.7074C12.1511 13.8033 12.2341 13.9171 12.2907 14.0424C12.3473 14.1676 12.3764 14.3019 12.3764 14.4375C12.3764 14.5731 12.3473 14.7074 12.2907 14.8326C12.2341 14.9579 12.1511 15.0717 12.0465 15.1676C11.9419 15.2635 11.8177 15.3396 11.6811 15.3915C11.5444 15.4433 11.3979 15.4701 11.25 15.4701C11.1021 15.4701 10.9556 15.4433 10.8189 15.3915C10.6823 15.3396 10.5581 15.2635 10.4535 15.1676L8.397 13.2804C8.1861 13.087 8.06762 12.8248 8.06762 12.5513C8.06762 12.2779 8.1861 12.0156 8.397 11.8222ZM4.5 20.625C4.5 20.3515 4.61853 20.0892 4.82951 19.8958C5.04048 19.7024 5.32663 19.5938 5.625 19.5938H9.1935C9.49187 19.5938 9.77802 19.7024 9.98899 19.8958C10.2 20.0892 10.3185 20.3515 10.3185 20.625C10.3185 20.8985 10.2 21.1608 9.98899 21.3542C9.77802 21.5476 9.49187 21.6562 9.1935 21.6562H5.625C5.32663 21.6562 5.04048 21.5476 4.82951 21.3542C4.61853 21.1608 4.5 20.8985 4.5 20.625ZM25.875 20.625C25.875 20.3515 25.9935 20.0892 26.2045 19.8958C26.4155 19.7024 26.7016 19.5938 27 19.5938H30.375C30.6734 19.5938 30.9595 19.7024 31.1705 19.8958C31.3815 20.0892 31.5 20.3515 31.5 20.625C31.5 20.8985 31.3815 21.1608 31.1705 21.3542C30.9595 21.5476 30.6734 21.6562 30.375 21.6562H27C26.7016 21.6562 26.4155 21.5476 26.2045 21.3542C25.9935 21.1608 25.875 20.8985 25.875 20.625ZM27.5715 11.8676C27.4154 11.7259 27.2069 11.6431 26.9874 11.6354C26.7678 11.6278 26.5531 11.6959 26.3857 11.8264L16.9808 19.2019C16.7616 19.3711 16.5837 19.5806 16.4584 19.8169C16.3332 20.0531 16.2635 20.3108 16.2537 20.5733C16.244 20.8359 16.2944 21.0973 16.4019 21.3408C16.5093 21.5843 16.6713 21.8045 16.8773 21.987C17.0834 22.1695 17.3289 22.3103 17.5981 22.4003C17.8673 22.4904 18.1541 22.5276 18.44 22.5097C18.7258 22.4917 19.0044 22.419 19.2577 22.2961C19.5109 22.1733 19.7333 22.0031 19.9102 21.7965L27.6367 12.9339C27.7707 12.7795 27.8381 12.5853 27.826 12.3884C27.814 12.1914 27.7234 12.0053 27.5715 11.8656V11.8676Z" fill="#8FD4FF"/>
<path fill-rule="evenodd" clip-rule="evenodd" d="M7.21996e-06 20.6248C0.0023593 18.2237 0.576396 15.8519 1.68204 13.6751C2.78769 11.4984 4.39831 9.56901 6.40145 8.02179C8.40459 6.47456 10.752 5.34675 13.2798 4.71708C15.8075 4.08741 18.4548 3.97106 21.0367 4.37615C23.6186 4.78124 26.0729 5.698 28.2284 7.06245C30.3838 8.42689 32.1884 10.2061 33.5162 12.276C34.844 14.3458 35.6629 16.6563 35.9159 19.0463C36.1688 21.4362 35.8497 23.8479 34.9808 26.1131C33.9863 28.6975 30.8295 29.4173 28.3838 28.6913C25.4453 27.8188 21.3188 26.8123 18 26.8123C14.6835 26.8123 10.5525 27.8188 7.61626 28.6913C5.17051 29.4173 2.01376 28.6975 1.01926 26.1131C0.342836 24.3498 -0.00181906 22.494 7.21996e-06 20.6248ZM18 6.18733C15.4808 6.18674 12.9983 6.74007 10.7607 7.80089C8.52304 8.86172 6.59566 10.3991 5.14028 12.2839C3.6849 14.1688 2.74398 16.3462 2.3965 18.6334C2.04901 20.9205 2.3051 23.2507 3.14326 25.4284C3.60001 26.6143 5.22001 27.2351 6.92326 26.7278C9.89326 25.8491 14.3055 24.7498 18 24.7498C21.6945 24.7498 26.109 25.8471 29.0768 26.7298C30.78 27.2351 32.4 26.6143 32.8568 25.4284C33.6949 23.2507 33.951 20.9205 33.6035 18.6334C33.256 16.3462 32.3151 14.1688 30.8597 12.2839C29.4044 10.3991 27.477 8.86172 25.2394 7.80089C23.0017 6.74007 20.5192 6.18674 18 6.18733Z" fill="#8FD4FF"/>
</svg>
