<svg width="41" height="32" viewBox="0 0 41 32" fill="none" xmlns="http://www.w3.org/2000/svg">
<path d="M12.663 16C10.3568 16.0595 8.47049 16.8214 7.00417 18.2857H4.14271C2.97535 18.2857 1.99306 18.0446 1.19583 17.5625C0.398611 17.0804 0 16.375 0 15.4464C0 11.244 0.882639 9.14286 2.64792 9.14286C2.73333 9.14286 3.04297 9.26786 3.57682 9.51786C4.11068 9.76786 4.80469 10.0208 5.65885 10.2768C6.51302 10.5327 7.36007 10.6607 8.2 10.6607C9.15382 10.6607 10.1005 10.5238 11.0401 10.25C10.9689 10.6905 10.9333 11.0833 10.9333 11.4286C10.9333 13.0833 11.5099 14.6071 12.663 16ZM35.5333 27.375C35.5333 28.8036 35.0137 29.9315 33.9745 30.7589C32.9352 31.5863 31.5543 32 29.8318 32H11.1682C9.44566 32 8.06476 31.5863 7.02552 30.7589C5.98628 29.9315 5.46667 28.8036 5.46667 27.375C5.46667 26.744 5.49158 26.128 5.54141 25.5268C5.59123 24.9256 5.69089 24.2768 5.84036 23.5804C5.98984 22.8839 6.17847 22.2381 6.40625 21.6429C6.63403 21.0476 6.9401 20.4673 7.32448 19.9018C7.70885 19.3363 8.15017 18.8542 8.64844 18.4554C9.1467 18.0565 9.75529 17.7381 10.4742 17.5C11.1931 17.2619 11.9868 17.1429 12.8552 17.1429C12.9976 17.1429 13.3036 17.2708 13.7734 17.5268C14.2432 17.7827 14.7628 18.0685 15.3323 18.3839C15.9017 18.6994 16.6634 18.9851 17.6172 19.2411C18.571 19.497 19.5319 19.625 20.5 19.625C21.4681 19.625 22.429 19.497 23.3828 19.2411C24.3366 18.9851 25.0983 18.6994 25.6677 18.3839C26.2372 18.0685 26.7568 17.7827 27.2266 17.5268C27.6964 17.2708 28.0024 17.1429 28.1448 17.1429C29.0132 17.1429 29.8069 17.2619 30.5258 17.5C31.2447 17.7381 31.8533 18.0565 32.3516 18.4554C32.8498 18.8542 33.2911 19.3363 33.6755 19.9018C34.0599 20.4673 34.366 21.0476 34.5938 21.6429C34.8215 22.2381 35.0102 22.8839 35.1596 23.5804C35.3091 24.2768 35.4088 24.9256 35.4586 25.5268C35.5084 26.128 35.5333 26.744 35.5333 27.375ZM13.6667 4.57143C13.6667 5.83333 13.1328 6.91071 12.0651 7.80357C10.9974 8.69643 9.70903 9.14286 8.2 9.14286C6.69097 9.14286 5.4026 8.69643 4.3349 7.80357C3.26719 6.91071 2.73333 5.83333 2.73333 4.57143C2.73333 3.30952 3.26719 2.23214 4.3349 1.33929C5.4026 0.446429 6.69097 0 8.2 0C9.70903 0 10.9974 0.446429 12.0651 1.33929C13.1328 2.23214 13.6667 3.30952 13.6667 4.57143ZM28.7 11.4286C28.7 13.3214 27.8992 14.9375 26.2977 16.2768C24.6961 17.6161 22.7635 18.2857 20.5 18.2857C18.2365 18.2857 16.3039 17.6161 14.7023 16.2768C13.1008 14.9375 12.3 13.3214 12.3 11.4286C12.3 9.53572 13.1008 7.91964 14.7023 6.58036C16.3039 5.24107 18.2365 4.57143 20.5 4.57143C22.7635 4.57143 24.6961 5.24107 26.2977 6.58036C27.8992 7.91964 28.7 9.53572 28.7 11.4286ZM41 15.4464C41 16.375 40.6014 17.0804 39.8042 17.5625C39.0069 18.0446 38.0247 18.2857 36.8573 18.2857H33.9958C32.5295 16.8214 30.6432 16.0595 28.337 16C29.4901 14.6071 30.0667 13.0833 30.0667 11.4286C30.0667 11.0833 30.0311 10.6905 29.9599 10.25C30.8995 10.5238 31.8462 10.6607 32.8 10.6607C33.6399 10.6607 34.487 10.5327 35.3411 10.2768C36.1953 10.0208 36.8893 9.76786 37.4232 9.51786C37.957 9.26786 38.2667 9.14286 38.3521 9.14286C40.1174 9.14286 41 11.244 41 15.4464ZM38.2667 4.57143C38.2667 5.83333 37.7328 6.91071 36.6651 7.80357C35.5974 8.69643 34.309 9.14286 32.8 9.14286C31.291 9.14286 30.0026 8.69643 28.9349 7.80357C27.8672 6.91071 27.3333 5.83333 27.3333 4.57143C27.3333 3.30952 27.8672 2.23214 28.9349 1.33929C30.0026 0.446429 31.291 0 32.8 0C34.309 0 35.5974 0.446429 36.6651 1.33929C37.7328 2.23214 38.2667 3.30952 38.2667 4.57143Z" fill="#C1C1C1"/>
</svg>
