<svg width="26" height="29" viewBox="0 0 26 29" fill="none" xmlns="http://www.w3.org/2000/svg">
<path fill-rule="evenodd" clip-rule="evenodd" d="M13.0409 2.75681H25.0408V5.75677H13.0409V2.75681ZM13.0409 13.2568H25.0408V16.2568H13.0409V13.2568ZM1.04077 20.7568H8.54072V28.2568H1.04084L1.04077 20.7568ZM3.29077 23.0068V26.0068H6.29072V23.0068H3.29077ZM13.0408 23.7568H25.0408V26.7568H13.0409L13.0408 23.7568ZM8.38723 0L10.1706 1.3718L4.82463 8.3217L0 4.10013L1.48162 2.40687L4.50281 5.04879L8.38723 0ZM8.38723 10.5L10.1706 11.8718L4.82463 18.8217L0 14.6001L1.48162 12.9068L4.50281 15.5488L8.38723 10.5Z" fill="#8FD4FF"/>
</svg>
