<svg width="35" height="35" viewBox="0 0 35 35" fill="none" xmlns="http://www.w3.org/2000/svg">
<path d="M17.4997 13.125C16.3394 13.125 15.2266 13.5859 14.4061 14.4064C13.5856 15.2269 13.1247 16.3397 13.1247 17.5C13.1247 18.6603 13.5856 19.7731 14.4061 20.5936C15.2266 21.4141 16.3394 21.875 17.4997 21.875C18.66 21.875 19.7728 21.4141 20.5933 20.5936C21.4137 19.7731 21.8747 18.6603 21.8747 17.5C21.8747 16.3397 21.4137 15.2269 20.5933 14.4064C19.7728 13.5859 18.66 13.125 17.4997 13.125ZM17.4997 24.7917C15.5658 24.7917 13.7111 24.0234 12.3437 22.656C10.9762 21.2885 10.208 19.4339 10.208 17.5C10.208 15.5661 10.9762 13.7115 12.3437 12.344C13.7111 10.9766 15.5658 10.2083 17.4997 10.2083C19.4335 10.2083 21.2882 10.9766 22.6557 12.344C24.0231 13.7115 24.7913 15.5661 24.7913 17.5C24.7913 19.4339 24.0231 21.2885 22.6557 22.656C21.2882 24.0234 19.4335 24.7917 17.4997 24.7917ZM17.4997 6.5625C10.208 6.5625 3.98092 11.0979 1.45801 17.5C3.98092 23.9021 10.208 28.4375 17.4997 28.4375C24.7913 28.4375 31.0184 23.9021 33.5413 17.5C31.0184 11.0979 24.7913 6.5625 17.4997 6.5625Z" fill="#016FB4"/>
</svg>
